<?xml version="1.0" standalone="no"?><!DOCTYPE svg PUBLIC "-//W3C//DTD SVG 1.1//EN" "http://www.w3.org/Graphics/SVG/1.1/DTD/svg11.dtd"><svg t="1747840182840" class="icon" viewBox="0 0 1024 1024" version="1.1" xmlns="http://www.w3.org/2000/svg" p-id="2630" xmlns:xlink="http://www.w3.org/1999/xlink" width="200" height="200"><path d="M663.04 454.656H370.176c-8.192 0-15.36 6.656-15.36 15.36v186.88c15.36-19.968 38.4-47.104 55.296-50.688 41.984-5.12 78.848 25.088 105.984 26.624 35.328 0 64-74.24 95.744-74.24 22.016 0 50.688 18.432 65.536 30.208V469.504c0.512-8.192-6.144-14.848-14.336-14.848z m-188.416 107.52c-10.24 8.192-22.016 13.312-33.792 13.312-13.312 0-25.088-5.12-33.792-13.312-8.192-8.192-13.312-22.016-13.312-33.792s5.12-25.088 13.312-33.792c8.192-8.192 19.968-13.312 33.792-13.312 11.776 0 23.552 5.12 33.792 13.312 8.192 8.192 13.312 22.016 13.312 33.792s-5.12 25.088-13.312 33.792z" fill="#B973EF" p-id="2631"></path><path d="M690.176 304.128c-11.776 0-24.576-4.608-33.792-14.336-9.728-8.704-14.336-21.504-14.336-33.792V32.256H162.304c-11.776 0-24.576 4.608-33.792 14.336-8.192 8.704-13.312 19.456-14.336 30.208v870.912c1.024 10.752 5.632 22.016 14.336 30.208 9.728 9.728 21.504 14.336 33.792 14.336h704c11.776 0 24.576-4.608 33.792-14.336 9.728-9.728 14.336-21.504 14.336-33.792v-640h-224.256z m9.216 431.616c0 16.896-13.312 30.208-30.208 30.208H359.424c-16.896 0-30.208-13.312-30.208-30.208V459.776c0-16.896 13.312-30.208 30.208-30.208h309.248c16.896 0 30.208 13.312 30.208 30.208v275.968h0.512z" fill="#B973EF" p-id="2632"></path><path d="M642.56 256c0 11.776 4.608 24.576 14.336 33.792 8.704 9.728 21.504 14.336 33.792 14.336h224.256L642.56 31.744V256z" fill="#E6CCFF" p-id="2633"></path></svg>